<svg xmlns="http://www.w3.org/2000/svg" width="640" height="320" viewBox="0 0 640 320">
  <defs>
    <filter id="markits-shadow" x="-20%" y="-20%" width="140%" height="140%">
      <feDropShadow dx="0" dy="2" stdDeviation="3" flood-color="#000000" flood-opacity="0.25"/>
    </filter>
    <marker id="arrowhead-primary" viewBox="0 0 10 10" refX="7" refY="5" markerWidth="6" markerHeight="6" orient="auto-start-reverse">
      <path d="M 0 1.5 L 8 5 L 0 8.5 z" fill="#2563eb" />
    </marker>
    <marker id="arrowhead-secondary" viewBox="0 0 10 10" refX="7" refY="5" markerWidth="6" markerHeight="6" orient="auto-start-reverse">
      <path d="M 0 1.5 L 8 5 L 0 8.5 z" fill="#4b5563" />
    </marker>
    <marker id="arrowhead-warning" viewBox="0 0 10 10" refX="7" refY="5" markerWidth="6" markerHeight="6" orient="auto-start-reverse">
      <path d="M 0 1.5 L 8 5 L 0 8.5 z" fill="#d97706" />
    </marker>
    <marker id="arrowhead-danger" viewBox="0 0 10 10" refX="7" refY="5" markerWidth="6" markerHeight="6" orient="auto-start-reverse">
      <path d="M 0 1.5 L 8 5 L 0 8.5 z" fill="#dc2626" />
    </marker>
    <marker id="arrowhead-info" viewBox="0 0 10 10" refX="7" refY="5" markerWidth="6" markerHeight="6" orient="auto-start-reverse">
      <path d="M 0 1.5 L 8 5 L 0 8.5 z" fill="#0284c7" />
    </marker>
    <marker id="arrowhead-step" viewBox="0 0 10 10" refX="7" refY="5" markerWidth="6" markerHeight="6" orient="auto-start-reverse">
      <path d="M 0 1.5 L 8 5 L 0 8.5 z" fill="#7c3aed" />
    </marker>
    <marker id="arrowhead-pink" viewBox="0 0 10 10" refX="7" refY="5" markerWidth="6" markerHeight="6" orient="auto-start-reverse">
      <path d="M 0 1.5 L 8 5 L 0 8.5 z" fill="#ea1a65" />
    </marker>
  </defs>
  <g filter="url(#markits-shadow)">
    <polygon points="332,142.3 332,165.7 308,154" fill="#ea1a65" stroke="#ea1a65" stroke-width="1.5"/>
    <circle cx="332" cy="154" r="18" fill="#ea1a65" stroke="#ffffff" stroke-width="2.5"/>
    <text x="332" y="154" fill="#ffffff" font-family="system-ui, -apple-system, BlinkMacSystemFont, 'Segoe UI', Roboto, sans-serif" font-size="17.099999999999998" font-weight="bold" text-anchor="middle" dominant-baseline="central">♡</text>
    <rect x="354" y="138.55" width="141.60000000000002" height="30.900000000000002" rx="6" ry="6" fill="#1e293b" stroke="#ffffff" stroke-width="1.5"/>
    <text x="424.8" y="154" fill="#ffffff" font-family="system-ui, -apple-system, BlinkMacSystemFont, 'Segoe UI', Roboto, sans-serif" font-size="14" font-weight="600" text-anchor="middle" dominant-baseline="central">お気に入りに追加</text>
  </g>
</svg>
