<svg xmlns="http://www.w3.org/2000/svg" width="640" height="360" viewBox="0 0 640 360">
  <defs>
    <marker id="arrowhead-primary" viewBox="0 0 10 10" refX="7" refY="5" markerWidth="6" markerHeight="6" orient="auto-start-reverse">
      <path d="M 0 1.5 L 8 5 L 0 8.5 z" fill="#2563eb" />
    </marker>
    <marker id="arrowhead-secondary" viewBox="0 0 10 10" refX="7" refY="5" markerWidth="6" markerHeight="6" orient="auto-start-reverse">
      <path d="M 0 1.5 L 8 5 L 0 8.5 z" fill="#4b5563" />
    </marker>
    <marker id="arrowhead-warning" viewBox="0 0 10 10" refX="7" refY="5" markerWidth="6" markerHeight="6" orient="auto-start-reverse">
      <path d="M 0 1.5 L 8 5 L 0 8.5 z" fill="#d97706" />
    </marker>
    <marker id="arrowhead-danger" viewBox="0 0 10 10" refX="7" refY="5" markerWidth="6" markerHeight="6" orient="auto-start-reverse">
      <path d="M 0 1.5 L 8 5 L 0 8.5 z" fill="#dc2626" />
    </marker>
    <marker id="arrowhead-info" viewBox="0 0 10 10" refX="7" refY="5" markerWidth="6" markerHeight="6" orient="auto-start-reverse">
      <path d="M 0 1.5 L 8 5 L 0 8.5 z" fill="#0284c7" />
    </marker>
    <marker id="arrowhead-step" viewBox="0 0 10 10" refX="7" refY="5" markerWidth="6" markerHeight="6" orient="auto-start-reverse">
      <path d="M 0 1.5 L 8 5 L 0 8.5 z" fill="#7c3aed" />
    </marker>
    <marker id="arrowhead-pink" viewBox="0 0 10 10" refX="7" refY="5" markerWidth="6" markerHeight="6" orient="auto-start-reverse">
      <path d="M 0 1.5 L 8 5 L 0 8.5 z" fill="#ea1a65" />
    </marker>
    <mask id="spotlight-mask-0">
      <rect width="100%" height="100%" fill="white"/>
      <rect x="110" y="85" width="420" height="48" rx="6" ry="6" fill="black"/>
    </mask>
  </defs>
  <!-- Spotlight -->
  <rect width="100%" height="100%" fill="#000000" opacity="0.65" mask="url(#spotlight-mask-0)"/>
  <rect x="110" y="85" width="420" height="48" rx="6" ry="6" fill="none" stroke="#2563eb" stroke-width="2.5" stroke-dasharray="4 3"/>
</svg>
